# xmcd
#
# Track frame offsets: 
#        150
#        18040
#        27484
#        59641
#        76827
#        123756
#        139539
#        185919
#        198639
#
# Disc length: 2967 seconds
#
# Revision: 0
# Processed by: cddbd v1.5.2PL0 Copyright (c) Steve Scherf et al.
# Submitted via: ExactAudioCopy v0.99pb3
#
DISCID=770b9509
DTITLE=Galena - The Druid Curtain
DYEAR=2006
DGENRE=Unlabel
TTITLE0=Panther Talk
TTITLE1=Kochan
TTITLE2=Hydro Doorways
TTITLE3=Nearex
TTITLE4=Druid Curtain
TTITLE5=Sanscrit
TTITLE6=Gorbesh
TTITLE7=Siempre Dub
TTITLE8=Bassub
EXTD=
EXTT0=
EXTT1=
EXTT2=
EXTT3=
EXTT4=
EXTT5=
EXTT6=
EXTT7=
EXTT8=
PLAYORDER=
